<mxfile host="65bd71144e">
    <diagram id="OPvoH_Zkg3P2No53jjPI" name="Page-1">
        <mxGraphModel dx="1334" dy="611" grid="1" gridSize="10" guides="1" tooltips="1" connect="1" arrows="1" fold="1" page="1" pageScale="1" pageWidth="850" pageHeight="1100" math="0" shadow="0">
            <root>
                <mxCell id="0"/>
                <mxCell id="1" parent="0"/>
                <mxCell id="2" value="Header . Payload . Signature" style="text;html=1;align=center;verticalAlign=middle;resizable=0;points=[];autosize=1;strokeColor=none;fillColor=none;" parent="1" vertex="1">
                    <mxGeometry x="20" y="55" width="180" height="30" as="geometry"/>
                </mxCell>
                <mxCell id="3" value="" style="edgeStyle=none;orthogonalLoop=1;jettySize=auto;html=1;exitX=0.207;exitY=1.02;exitDx=0;exitDy=0;exitPerimeter=0;" parent="1" source="2" edge="1">
                    <mxGeometry width="100" relative="1" as="geometry">
                        <mxPoint x="10" y="120" as="sourcePoint"/>
                        <mxPoint x="57" y="240" as="targetPoint"/>
                        <Array as="points"/>
                    </mxGeometry>
                </mxCell>
                <mxCell id="4" value="typ : &quot;JWT&quot;&amp;nbsp; &amp;nbsp; alg : &quot;RSA&quot; or &quot;HS256&quot;" style="text;html=1;align=center;verticalAlign=middle;resizable=0;points=[];autosize=1;strokeColor=none;fillColor=none;" parent="1" vertex="1">
                    <mxGeometry x="-50" y="245" width="220" height="30" as="geometry"/>
                </mxCell>
                <mxCell id="5" value="" style="edgeStyle=none;orthogonalLoop=1;jettySize=auto;html=1;exitX=0.476;exitY=1.02;exitDx=0;exitDy=0;exitPerimeter=0;" parent="1" source="2" edge="1">
                    <mxGeometry width="100" relative="1" as="geometry">
                        <mxPoint x="67.25999999999999" y="95.60000000000002" as="sourcePoint"/>
                        <mxPoint x="220" y="330" as="targetPoint"/>
                        <Array as="points"/>
                    </mxGeometry>
                </mxCell>
                <mxCell id="6" value="اطلاعات غیر حساس کاربر&lt;br&gt;+&lt;br&gt;زمان تولید(iat) و انقضای کاربر" style="text;html=1;align=center;verticalAlign=middle;resizable=0;points=[];autosize=1;strokeColor=none;fillColor=none;" parent="1" vertex="1">
                    <mxGeometry x="145" y="330" width="150" height="60" as="geometry"/>
                </mxCell>
                <mxCell id="7" value="" style="edgeStyle=none;orthogonalLoop=1;jettySize=auto;html=1;exitX=0.876;exitY=1.1;exitDx=0;exitDy=0;exitPerimeter=0;" parent="1" source="2" edge="1">
                    <mxGeometry width="100" relative="1" as="geometry">
                        <mxPoint x="115.68000000000006" y="95.60000000000002" as="sourcePoint"/>
                        <mxPoint x="330" y="180" as="targetPoint"/>
                        <Array as="points"/>
                    </mxGeometry>
                </mxCell>
                <mxCell id="8" value="hash of&lt;br&gt;payload + Header + secretKey&lt;br&gt;By&lt;br&gt;decode algorithm (HS,RS,PS,ES)" style="text;html=1;align=center;verticalAlign=middle;resizable=0;points=[];autosize=1;strokeColor=none;fillColor=none;" parent="1" vertex="1">
                    <mxGeometry x="260" y="190" width="200" height="70" as="geometry"/>
                </mxCell>
                <mxCell id="9" value="&lt;font style=&quot;font-size: 18px;&quot;&gt;token has expire-tiem,if this expired,token dont work!&lt;/font&gt;" style="text;html=1;align=center;verticalAlign=middle;resizable=0;points=[];autosize=1;strokeColor=none;fillColor=none;" parent="1" vertex="1">
                    <mxGeometry x="-70" y="415" width="440" height="40" as="geometry"/>
                </mxCell>
                <mxCell id="10" value="important methods :&lt;br&gt;&lt;div style=&quot;&quot;&gt;&lt;span style=&quot;background-color: rgb(173, 183, 42);&quot;&gt;sign&lt;/span&gt;&lt;span style=&quot;background-color: initial;&quot;&gt; =&amp;gt; get HEADER | PAYLOAD | SECRET-KEY =&amp;gt; returns =&amp;gt; JWT&lt;/span&gt;&lt;/div&gt;&lt;div style=&quot;&quot;&gt;&lt;span style=&quot;background-color: rgb(147, 216, 19);&quot;&gt;verify&lt;/span&gt;&lt;span style=&quot;background-color: initial;&quot;&gt; =&amp;gt; get TOKEN | SECRET-KEY =&amp;gt; returns =&amp;gt; token is valid or no!&lt;/span&gt;&lt;/div&gt;&lt;div style=&quot;&quot;&gt;&lt;span style=&quot;background-color: rgb(172, 21, 167);&quot;&gt;decode&lt;/span&gt;&lt;span style=&quot;background-color: initial;&quot;&gt; =&amp;gt; read UserDetails From TOKEN&lt;/span&gt;&lt;/div&gt;" style="text;html=1;align=left;verticalAlign=middle;resizable=0;points=[];autosize=1;strokeColor=none;fillColor=none;fontSize=18;" parent="1" vertex="1">
                    <mxGeometry x="-75" y="490" width="590" height="100" as="geometry"/>
                </mxCell>
            </root>
        </mxGraphModel>
    </diagram>
</mxfile>